<svg width="16" height="17" viewBox="0 0 16 17" fill="none" xmlns="http://www.w3.org/2000/svg">
<path d="M8 0.992188C6.89062 0.992188 5.85156 1.20312 4.88281 1.625C3.91406 2.04688 3.0625 2.625 2.32812 3.35938C1.60938 4.07812 1.03906 4.92188 0.617188 5.89062C0.210938 6.85938 0.0078125 7.89844 0.0078125 9.00781C0.0078125 10.1016 0.210938 11.1406 0.617188 12.125C1.03906 13.0938 1.60938 13.9375 2.32812 14.6562C3.0625 15.375 3.91406 15.9453 4.88281 16.3672C5.85156 16.7891 6.89062 17 8 17C9.10938 17 10.1484 16.7891 11.1172 16.3672C12.0859 15.9453 12.9297 15.375 13.6484 14.6562C14.3828 13.9375 14.9609 13.0938 15.3828 12.125C15.7891 11.1406 15.9922 10.1016 15.9922 9.00781C15.9922 7.89844 15.7891 6.85938 15.3828 5.89062C14.9609 4.92188 14.3828 4.07812 13.6484 3.35938C12.9297 2.625 12.0859 2.04688 11.1172 1.625C10.1484 1.20312 9.10938 0.992188 8 0.992188ZM8 15.0078C7.17188 15.0078 6.39062 14.8516 5.65625 14.5391C4.9375 14.2109 4.30469 13.7812 3.75781 13.25C3.21094 12.7031 2.78125 12.0625 2.46875 11.3281C2.15625 10.6094 2 9.83594 2 9.00781C2 8.17969 2.15625 7.39844 2.46875 6.66406C2.78125 5.92969 3.21094 5.29688 3.75781 4.76562C4.30469 4.21875 4.9375 3.78906 5.65625 3.47656C6.39062 3.16406 7.17188 3.00781 8 3.00781C8.82812 3.00781 9.60938 3.16406 10.3438 3.47656C11.0625 3.78906 11.6953 4.21875 12.2422 4.76562C12.7891 5.29688 13.2188 5.92969 13.5312 6.66406C13.8438 7.39844 14 8.17969 14 9.00781C14 9.83594 13.8438 10.6094 13.5312 11.3281C13.2188 12.0625 12.7891 12.7031 12.2422 13.25C11.6953 13.7812 11.0625 14.2109 10.3438 14.5391C9.60938 14.8516 8.82812 15.0078 8 15.0078ZM6.99219 5H9.00781V9.99219H6.99219V5ZM6.99219 11H9.00781V12.9922H6.99219V11Z" fill="#C04024"/>
</svg>
